<?xml version="1.0" encoding="iso-8859-1"?>
<!-- Uploaded to: SVG Repo, www.svgrepo.com, Generator: SVG Repo Mixer Tools -->
<svg height="800px" width="800px" version="1.1" id="Layer_1" xmlns="http://www.w3.org/2000/svg" xmlns:xlink="http://www.w3.org/1999/xlink" 
	 viewBox="0 0 512 512" xml:space="preserve">
<path style="fill:#FFDD09;" d="M477.867,384c0,65.707-47.787,119.467-106.667,119.467S264.533,449.707,264.533,384
	S312.32,264.533,371.2,264.533S477.867,318.293,477.867,384"/>
<path style="fill:#FD9808;" d="M384,264.533c-2.56,0-4.267,0-6.827,0C433.493,268.8,477.867,320,477.867,384
	s-44.373,115.2-100.693,119.467c2.56,0,4.267,0,6.827,0c65.707,0,119.467-53.76,119.467-119.467S449.707,264.533,384,264.533"/>
<path style="fill:#FFDD09;" d="M261.973,384c0-65.707,47.787-119.467,105.813-119.467c29.867,0,56.32-5.12,75.947,17.067V8.533
	h-409.6v460.8h259.413C273.92,448,261.973,417.28,261.973,384"/>
<path style="fill:#54C9FD;" d="M381.44,264.533c0.853,0,1.707,0,2.56,0c33.28,0,64,13.653,85.333,35.84v-61.44l-89.6-87.04
	l89.6-88.747V8.533H414.72L179.2,244.053V8.533h-68.267v102.4H8.533V179.2h102.4v133.12l-12.8,12.8l-89.6,89.6v54.613h54.613
	L325.12,207.36L381.44,264.533z"/>
<path style="fill:#FD9808;" d="M443.733,8.533v272.213c9.387,5.12,17.92,11.947,25.6,19.627V8.533H443.733z"/>
<g>
	<polygon style="fill:#33A9F8;" points="469.333,59.733 443.733,85.333 443.733,8.533 469.333,8.533 	"/>
	<polygon style="fill:#33A9F8;" points="469.333,298.667 443.733,281.6 443.733,213.333 469.333,230.4 	"/>
</g>
<polygon style="fill:#FFFFFF;" points="8.533,469.333 34.133,469.333 34.133,8.533 8.533,8.533 "/>
<path d="M300.373,477.867H8.533c-5.12,0-8.533-3.413-8.533-8.533V307.2c0-5.12,3.413-8.533,8.533-8.533s8.533,3.413,8.533,8.533
	v153.6H281.6C265.387,438.613,256,412.16,256,384c0-70.827,57.173-128,128-128c28.16,0,54.613,9.387,76.8,25.6V17.067H17.067
	v221.867c0,5.12-3.413,8.533-8.533,8.533S0,244.053,0,238.933V8.533C0,3.413,3.413,0,8.533,0h460.8c5.12,0,8.533,3.413,8.533,8.533
	v291.84c0,3.413-1.707,6.827-5.12,7.68c-3.413,1.707-6.827,0.853-9.387-1.707c-21.333-21.333-49.493-33.28-79.36-33.28
	c-61.44,0-110.933,49.493-110.933,110.933c0,29.867,11.947,58.027,33.28,79.36c2.56,2.56,3.413,5.973,1.707,9.387
	C306.347,476.16,303.787,477.867,300.373,477.867z"/>
<path d="M17.067,273.067c0-5.12-3.413-8.533-8.533-8.533S0,267.947,0,273.067s3.413,8.533,8.533,8.533
	S17.067,278.187,17.067,273.067"/>
<path style="fill:#070707;" d="M384,452.267c-5.12,0-8.533-3.413-8.533-8.533V324.267c0-5.12,3.413-8.533,8.533-8.533
	c5.12,0,8.533,3.413,8.533,8.533v119.467C392.533,448.853,389.12,452.267,384,452.267z"/>
<path d="M418.133,366.933c-2.56,0-4.267-0.853-5.973-2.56L384,336.213l-28.16,28.16c-3.413,3.413-8.533,3.413-11.947,0
	c-3.413-3.413-3.413-8.533,0-11.947l34.133-34.133c3.413-3.413,8.533-3.413,11.947,0l34.133,34.133
	c3.413,3.413,3.413,8.533,0,11.947C422.4,366.08,420.693,366.933,418.133,366.933z"/>
<path d="M384,512c-70.827,0-128-57.173-128-128s57.173-128,128-128s128,57.173,128,128S454.827,512,384,512z M384,273.067
	c-61.44,0-110.933,49.493-110.933,110.933S322.56,494.933,384,494.933S494.933,445.44,494.933,384S445.44,273.067,384,273.067z"/>
<path d="M63.147,477.867H8.533c-5.12,0-8.533-3.413-8.533-8.533V414.72c0-2.56,0.853-4.267,2.56-5.973l99.84-99.84V187.733H8.533
	C3.413,187.733,0,184.32,0,179.2v-68.267c0-5.12,3.413-8.533,8.533-8.533H102.4V8.533c0-5.12,3.413-8.533,8.533-8.533H179.2
	c5.12,0,8.533,3.413,8.533,8.533v215.04L408.747,2.56C410.453,0.853,413.013,0,414.72,0h54.613c5.12,0,8.533,3.413,8.533,8.533
	v54.613c0,2.56-0.853,4.267-2.56,5.973l-82.773,82.773l82.773,81.067c1.707,1.707,2.56,3.413,2.56,5.973v61.44
	c0,3.413-1.707,6.827-5.12,7.68c-3.413,0.853-6.827,0.853-9.387-1.707c-21.333-21.333-49.493-33.28-79.36-33.28
	c-0.853,0-1.707,0-2.56,0c-2.56,0-4.267-0.853-5.973-2.56l-50.347-51.2l-256,256C67.413,477.013,64.853,477.867,63.147,477.867z
	 M17.067,460.8h42.667l259.413-259.413c1.707-1.707,3.413-2.56,5.973-2.56l0,0c2.56,0,4.267,0.853,5.973,2.56L384.853,256
	c27.307,0,53.76,9.387,75.947,25.6v-39.253l-87.04-84.48c-1.707-1.707-2.56-3.413-2.56-5.973s0.853-4.267,2.56-5.973l87.04-87.04
	V17.067h-41.813l-233.813,232.96c-2.56,2.56-5.973,3.413-9.387,1.707c-3.413-0.853-5.12-4.267-5.12-7.68V17.067h-51.2v93.867
	c0,5.12-3.413,8.533-8.533,8.533H17.067v51.2h93.867c5.12,0,8.533,3.413,8.533,8.533v133.12c0,2.56-0.853,4.267-2.56,5.973
	l-99.84,100.693V460.8z"/>
</svg>